<svg width="24" height="24" viewBox="0 0 24 24" fill="none" xmlns="http://www.w3.org/2000/svg">
<g opacity="0.5">
<path d="M16.978 11.346C17.623 10.389 18 9.23798 18 8.00002V6C18 2.691 15.309 0 12 0C8.69098 0 5.99998 2.691 5.99998 6V8.00002C5.99998 9.23803 6.377 10.389 7.022 11.346C4.02598 13.074 2 16.3 2 20V21C2 22.654 3.34602 24 5 24H19C20.654 24 22 22.654 22 21V20C22 16.3 19.974 13.074 16.978 11.346ZM8 6C8 3.79402 9.794 2.00002 12 2.00002C14.206 2.00002 16 3.79402 16 6V8.00002C16 10.206 14.206 12 12 12C9.794 12 8 10.206 8 8.00002V6ZM20 21C20 21.551 19.551 22 19 22H5C4.44898 22 4.00002 21.551 4.00002 21V20C4.00002 16.861 5.81802 14.14 8.456 12.831C9.45102 13.562 10.674 14 12 14C13.326 14 14.549 13.562 15.544 12.831C18.182 14.14 20 16.861 20 20V21H20Z" fill="#002C44"/>
</g>
</svg>
